<svg width="170" height="130" viewBox="0 0 170 130" fill="none" xmlns="http://www.w3.org/2000/svg">
<path fill-rule="evenodd" clip-rule="evenodd" d="M133.83 80.4048V65.5115H138.826V72.4448C138.826 72.9509 138.719 73.5296 138.719 73.5296H138.934L144.372 65.5115H149.154V80.4019H144.157V73.4045C144.157 72.9043 144.265 72.4303 144.265 72.4303H144.049L138.611 80.4019H133.83V80.4048Z" fill="white"/>
<path fill-rule="evenodd" clip-rule="evenodd" d="M123.468 65.1189C128.22 65.1189 131.762 68.4809 131.762 72.9829C131.762 77.4849 128.217 80.8061 123.468 80.8061C118.718 80.8061 115.22 77.4442 115.22 72.9829C115.22 68.5216 118.765 65.1189 123.468 65.1189ZM123.468 76.1645C125.282 76.1645 126.492 74.754 126.492 72.98C126.492 71.2059 125.282 69.7547 123.468 69.7547C121.653 69.7547 120.443 71.1681 120.443 72.98C120.443 74.7918 121.699 76.1645 123.468 76.1645Z" fill="white"/>
<path fill-rule="evenodd" clip-rule="evenodd" d="M24.4499 82.9846C29.1206 82.9846 32.4185 86.3437 32.4185 90.8719C32.4185 95.4001 29.1206 98.6719 24.4499 98.6719C19.7792 98.6719 16.5045 95.3419 16.5045 90.8719C16.5045 86.4018 19.8344 82.9846 24.4499 82.9846ZM24.4499 95.9352C27.4541 95.9352 29.5015 93.7452 29.5015 90.869C29.5015 87.9927 27.4541 85.7155 24.4499 85.7155C21.4456 85.7155 19.4476 87.9345 19.4476 90.869C19.4476 93.8034 21.498 95.9352 24.4499 95.9352Z" fill="white"/>
<path fill-rule="evenodd" clip-rule="evenodd" d="M98.6633 91.7996C98.6923 91.4942 98.7127 91.1889 98.7127 90.8719C98.7127 86.3437 96.3686 82.9846 91.4682 82.9846C87.2744 82.9846 84.2469 86.3437 84.2469 90.8719C84.2469 91.1889 84.2673 91.4942 84.2964 91.7996H84.2905C84.6279 95.6851 87.1145 98.6748 92.3203 98.6748C94.8301 98.6748 96.9706 97.9041 98.512 96.6506L97.34 94.5101C96.197 95.3652 94.4579 96.1649 92.4046 96.1649C89.1532 96.1649 87.5827 94.3967 87.2977 91.7996H98.6633ZM91.6136 85.4596C94.2921 85.4596 95.6939 87.2045 95.9324 89.4875H87.3442C87.7717 87.126 89.4033 85.4596 91.6136 85.4596Z" fill="white"/>
<path fill-rule="evenodd" clip-rule="evenodd" d="M111.695 83.3828V89.4873H103.723V83.3828H100.757V98.2761H103.723V91.7936H111.695V98.2761H114.659V83.3828H111.695Z" fill="white"/>
<path fill-rule="evenodd" clip-rule="evenodd" d="M130.273 83.3828H116.706V86.0235H122.008V98.2761H124.974V86.0235H130.273V83.3828Z" fill="white"/>
<path d="M149.153 83.3828H146.19V98.2761H149.153V83.3828Z" fill="white"/>
<path fill-rule="evenodd" clip-rule="evenodd" d="M40.9689 90.4415V90.3106C40.9689 90.3106 41.2393 90.2204 41.4924 89.9354C41.7396 89.6562 47.1693 83.3831 47.1693 83.3831H43.8452L38.6161 89.4846H37.4353V83.3831H34.4718V98.2764H37.4353V91.7938H38.7789L44.421 98.2764H48.1116C48.1116 98.2764 41.7861 91.1394 41.5098 90.8312C41.251 90.5345 40.9689 90.4444 40.9689 90.4444V90.4415Z" fill="white"/>
<path fill-rule="evenodd" clip-rule="evenodd" d="M137.579 87.9372C136.194 87.9372 135.287 88.1146 135.287 88.1146V83.3857H132.323V98.2819C132.323 98.2819 134.76 98.5175 137.282 98.5175C141.935 98.5175 143.468 95.679 143.468 93.0674C143.468 90.4558 142.098 87.9372 137.576 87.9372H137.579ZM137.049 96.0367C136.127 96.0367 135.287 95.964 135.287 95.964V90.5925C135.287 90.5925 135.938 90.418 137.078 90.418C139.565 90.418 140.656 91.3777 140.656 93.1634C140.656 94.9491 139.673 96.0367 137.049 96.0367Z" fill="white"/>
<path fill-rule="evenodd" clip-rule="evenodd" d="M11.6156 83.3831L11.5371 85.2618H11.3481C10.4029 83.86 8.5154 82.9846 7.03508 82.9846C2.69012 82.9846 0.107565 86.3437 0.00286733 90.8719C-0.0989224 95.339 2.51562 98.669 6.85768 98.669C8.84694 98.669 10.0888 98.1048 11.3044 96.6652H11.4964V97.9971C11.4964 100.879 9.49548 102.022 7.24157 102.022C5.16797 102.022 3.55387 101.24 2.56506 100.647L1.5966 103.107C2.53889 103.593 4.30421 104.648 7.24157 104.648C11.4062 104.648 14.4599 102.168 14.4599 97.4039V83.3889H11.6185L11.6156 83.3831ZM7.38117 95.9381C4.39146 95.9381 2.80936 93.7452 2.87334 90.8719C2.94023 87.9374 4.62412 85.7184 7.61383 85.7184C9.26282 85.7184 11.4906 87.2278 11.4906 89.9558V94.0652C10.5628 95.2168 9.12322 95.9381 7.37826 95.9381H7.38117Z" fill="white"/>
<path fill-rule="evenodd" clip-rule="evenodd" d="M59.8639 83.383V94.1756C58.9943 95.2604 57.6624 95.9351 55.9756 95.9351C53.2534 95.9351 52.0058 93.7423 52.0726 90.8689V83.3772H49.1964V90.8689C49.0946 95.336 50.8832 98.666 55.2252 98.666C57.2116 98.666 58.5639 98.0756 59.672 96.6622H59.861V97.9942C59.861 100.876 57.863 102.019 55.6062 102.019C53.5326 102.019 51.9185 101.237 50.9297 100.644L49.9612 103.104C50.9006 103.59 52.6688 104.645 55.6062 104.645C59.7738 104.645 62.8245 102.165 62.8245 97.4009V83.3859H59.861L59.8639 83.383Z" fill="white"/>
<path fill-rule="evenodd" clip-rule="evenodd" d="M79.3872 83.383C79.3872 83.383 74.4839 90.2756 74.3414 90.4792C74.1989 90.6857 74.1523 90.8806 74.1523 90.8806H74.0447C74.0447 90.8806 73.9836 90.6857 73.8295 90.4792C73.6725 90.2756 68.4085 83.383 68.4085 83.383H65.6136V98.2763H68.5772V88.7779C68.5772 88.1177 68.4376 87.7425 68.4376 87.7425H68.5772L74.0302 95.0714H74.1552L79.2156 87.7425H79.3552C79.3552 87.7425 79.2156 88.1352 79.2156 88.7692V98.2734H82.1792V83.3801H79.3901L79.3872 83.383Z" fill="white"/>
<path fill-rule="evenodd" clip-rule="evenodd" d="M109.229 65.5144C109.229 65.5144 105.055 70.9383 104.887 71.1477C104.68 71.4008 104.663 71.5345 104.663 71.5345H104.448C104.448 71.5345 104.407 71.3891 104.209 71.1448C103.915 70.7813 99.5908 65.5144 99.5908 65.5144H95.6501V80.4077H100.469V74.1549C100.469 73.4831 100.361 73.073 100.361 73.073H100.577L104.451 77.5198H104.66L108.246 73.073H108.464C108.464 73.073 108.356 73.4744 108.356 74.1549V80.4077H113.175V65.5144H109.232H109.229Z" fill="white"/>
<path fill-rule="evenodd" clip-rule="evenodd" d="M140.222 35.9549V20.8435H128.31V35.9462C128.31 41.2683 131.148 46.1833 135.758 48.8415L149.156 56.5775V42.8272L141.714 38.5287C140.792 37.9965 140.225 37.0135 140.225 35.9491L140.222 35.9549Z" fill="#C59368"/>
<path fill-rule="evenodd" clip-rule="evenodd" d="M149.154 50.6244L162.555 42.8884C167.162 40.2273 170 35.3123 170 29.9902V0H149.154V11.9123H158.088V29.9989C158.088 31.0633 157.521 32.0463 156.599 32.5785L149.154 36.877V50.6244Z" fill="#ED5338"/>
<path fill-rule="evenodd" clip-rule="evenodd" d="M149.154 0L128.31 20.8465H149.154V0Z" fill="white"/>
<g clip-path="url(#clip0_3_59)">
<path d="M43.7682 109.853H44.7464L47.0466 115.472H47.1259L49.4261 109.853H50.4043V116.622H49.6376V111.479H49.5715L47.4564 116.622H46.7161L44.601 111.479H44.5349V116.622H43.7682V109.853ZM55.3393 113.727V114.454H52.5368V113.727H55.3393ZM52.7219 111.545V116.622H51.9419V111.545H52.7219ZM55.9342 111.545V116.622H55.1543V111.545H55.9342ZM59.4208 116.727C58.9626 116.727 58.5605 116.618 58.2145 116.4C57.8708 116.182 57.6021 115.877 57.4082 115.485C57.2165 115.093 57.1207 114.634 57.1207 114.11C57.1207 113.581 57.2165 113.12 57.4082 112.725C57.6021 112.331 57.8708 112.025 58.2145 111.806C58.5605 111.588 58.9626 111.479 59.4208 111.479C59.8791 111.479 60.2801 111.588 60.6238 111.806C60.9697 112.025 61.2385 112.331 61.4302 112.725C61.6241 113.12 61.721 113.581 61.721 114.11C61.721 114.634 61.6241 115.093 61.4302 115.485C61.2385 115.877 60.9697 116.182 60.6238 116.4C60.2801 116.618 59.8791 116.727 59.4208 116.727ZM59.4208 116.027C59.7689 116.027 60.0554 115.938 60.2801 115.759C60.5048 115.581 60.6712 115.346 60.7791 115.055C60.8871 114.764 60.9411 114.449 60.9411 114.11C60.9411 113.771 60.8871 113.454 60.7791 113.161C60.6712 112.868 60.5048 112.632 60.2801 112.451C60.0554 112.27 59.7689 112.18 59.4208 112.18C59.0727 112.18 58.7863 112.27 58.5616 112.451C58.3368 112.632 58.1705 112.868 58.0625 113.161C57.9546 113.454 57.9006 113.771 57.9006 114.11C57.9006 114.449 57.9546 114.764 58.0625 115.055C58.1705 115.346 58.3368 115.581 58.5616 115.759C58.7863 115.938 59.0727 116.027 59.4208 116.027ZM66.0446 111.545V112.272H63.6915V116.622H62.9116V111.545H66.0446ZM68.9818 116.727C68.5235 116.727 68.1214 116.618 67.7755 116.4C67.4318 116.182 67.163 115.877 66.9691 115.485C66.7774 115.093 66.6816 114.634 66.6816 114.11C66.6816 113.581 66.7774 113.12 66.9691 112.725C67.163 112.331 67.4318 112.025 67.7755 111.806C68.1214 111.588 68.5235 111.479 68.9818 111.479C69.4401 111.479 69.8411 111.588 70.1848 111.806C70.5307 112.025 70.7995 112.331 70.9912 112.725C71.185 113.12 71.282 113.581 71.282 114.11C71.282 114.634 71.185 115.093 70.9912 115.485C70.7995 115.877 70.5307 116.182 70.1848 116.4C69.8411 116.618 69.4401 116.727 68.9818 116.727ZM68.9818 116.027C69.3299 116.027 69.6163 115.938 69.8411 115.759C70.0658 115.581 70.2321 115.346 70.3401 115.055C70.448 114.764 70.502 114.449 70.502 114.11C70.502 113.771 70.448 113.454 70.3401 113.161C70.2321 112.868 70.0658 112.632 69.8411 112.451C69.6163 112.27 69.3299 112.18 68.9818 112.18C68.6337 112.18 68.3473 112.27 68.1225 112.451C67.8978 112.632 67.7314 112.868 67.6235 113.161C67.5155 113.454 67.4616 113.771 67.4616 114.11C67.4616 114.449 67.5155 114.764 67.6235 115.055C67.7314 115.346 67.8978 115.581 68.1225 115.759C68.3473 115.938 68.6337 116.027 68.9818 116.027ZM74.5347 118.353V109.853H75.3147V118.353H74.5347ZM74.5347 116.727C74.1912 116.727 73.8783 116.666 73.5962 116.542C73.3141 116.417 73.0718 116.239 72.8691 116.01C72.6664 115.779 72.51 115.502 72.3998 115.181C72.2897 114.859 72.2346 114.502 72.2346 114.11C72.2346 113.713 72.2897 113.354 72.3998 113.033C72.51 112.709 72.6664 112.431 72.8691 112.2C73.0718 111.968 73.3141 111.791 73.5962 111.668C73.8783 111.542 74.1912 111.479 74.5347 111.479H74.7729V116.727H74.5347ZM74.5347 116.027H74.667V112.18H74.5347C74.2747 112.18 74.049 112.233 73.8574 112.339C73.6657 112.442 73.5069 112.584 73.3813 112.765C73.258 112.943 73.1655 113.148 73.1038 113.38C73.0442 113.611 73.0145 113.854 73.0145 114.11C73.0145 114.449 73.0686 114.764 73.1765 115.055C73.2844 115.346 73.4508 115.581 73.6756 115.759C73.9004 115.938 74.1866 116.027 74.5347 116.027ZM75.3147 116.727H75.0768V111.479H75.3147C75.6585 111.479 75.9714 111.542 76.2532 111.668C76.5353 111.791 76.7776 111.968 76.9803 112.2C77.183 112.431 77.3394 112.709 77.4497 113.033C77.5599 113.354 77.6148 113.713 77.6148 114.11C77.6148 114.502 77.5599 114.859 77.4497 115.181C77.3394 115.502 77.183 115.779 76.9803 116.01C76.7776 116.239 76.5353 116.417 76.2532 116.542C75.9714 116.666 75.6585 116.727 75.3147 116.727ZM75.3147 116.027C75.577 116.027 75.8027 115.976 75.9923 115.875C76.184 115.771 76.3413 115.63 76.4649 115.452C76.5906 115.271 76.683 115.066 76.7424 114.837C76.804 114.606 76.8349 114.363 76.8349 114.11C76.8349 113.771 76.781 113.454 76.6731 113.161C76.565 112.868 76.3986 112.632 76.1741 112.451C75.9493 112.27 75.6628 112.18 75.3147 112.18H75.1827V116.027H75.3147ZM79.1277 118.525C78.9954 118.525 78.8776 118.514 78.7741 118.492C78.6706 118.472 78.599 118.453 78.5592 118.433L78.7575 117.745C78.9471 117.794 79.1144 117.811 79.2598 117.798C79.4052 117.785 79.5343 117.72 79.6466 117.603C79.7612 117.489 79.8659 117.302 79.9607 117.045L80.1061 116.648L78.2288 111.545H79.0748L80.476 115.59H80.5289L81.9302 111.545H82.7762L80.6214 117.362C80.5246 117.624 80.4045 117.841 80.2614 118.013C80.118 118.187 79.9516 118.316 79.7623 118.4C79.575 118.483 79.3636 118.525 79.1277 118.525ZM87.2032 113.727V114.454H84.4007V113.727H87.2032ZM84.5857 111.545V116.622H83.8057V111.545H84.5857ZM87.7979 111.545V116.622H87.0182V111.545H87.7979ZM89.2224 116.622V111.545H90.0024V113.753H90.518L92.3421 111.545H93.3469L91.298 113.991L93.3734 116.622H92.3685L90.703 114.48H90.0024V116.622H89.2224ZM98.2133 111.545V115.895H98.927V118.261H98.1473V116.622H94.2211V111.545H95.0008V115.895H97.4333V111.545H98.2133ZM100.908 115.472L103.354 111.545H104.253V116.622H103.473V112.695L101.041 116.622H100.128V111.545H100.908V115.472ZM107.744 116.727C107.285 116.727 106.883 116.618 106.537 116.4C106.194 116.182 105.925 115.877 105.731 115.485C105.539 115.093 105.444 114.634 105.444 114.11C105.444 113.581 105.539 113.12 105.731 112.725C105.925 112.331 106.194 112.025 106.537 111.806C106.883 111.588 107.285 111.479 107.744 111.479C108.202 111.479 108.603 111.588 108.947 111.806C109.293 112.025 109.561 112.331 109.753 112.725C109.947 113.12 110.044 113.581 110.044 114.11C110.044 114.634 109.947 115.093 109.753 115.485C109.561 115.877 109.293 116.182 108.947 116.4C108.603 116.618 108.202 116.727 107.744 116.727ZM107.744 116.027C108.092 116.027 108.378 115.938 108.603 115.759C108.828 115.581 108.994 115.346 109.102 115.055C109.21 114.764 109.264 114.449 109.264 114.11C109.264 113.771 109.21 113.454 109.102 113.161C108.994 112.868 108.828 112.632 108.603 112.451C108.378 112.27 108.092 112.18 107.744 112.18C107.396 112.18 107.109 112.27 106.884 112.451C106.66 112.632 106.493 112.868 106.385 113.161C106.277 113.454 106.224 113.771 106.224 114.11C106.224 114.449 106.277 114.764 106.385 115.055C106.493 115.346 106.66 115.581 106.884 115.759C107.109 115.938 107.396 116.027 107.744 116.027ZM114.632 113.727V114.454H111.829V113.727H114.632ZM112.014 111.545V116.622H111.235V111.545H112.014ZM115.227 111.545V116.622H114.447V111.545H115.227ZM118.145 116.741C117.823 116.741 117.531 116.68 117.269 116.559C117.007 116.435 116.799 116.258 116.645 116.027C116.49 115.793 116.413 115.511 116.413 115.181C116.413 114.89 116.47 114.654 116.585 114.473C116.699 114.291 116.853 114.147 117.044 114.044C117.236 113.94 117.447 113.863 117.679 113.812C117.913 113.76 118.147 113.718 118.383 113.687C118.691 113.647 118.941 113.618 119.133 113.598C119.327 113.576 119.468 113.539 119.556 113.489C119.646 113.438 119.692 113.35 119.692 113.224V113.198C119.692 112.872 119.602 112.618 119.424 112.438C119.248 112.257 118.98 112.167 118.621 112.167C118.248 112.167 117.956 112.248 117.745 112.411C117.534 112.574 117.385 112.748 117.299 112.933L116.558 112.669C116.691 112.361 116.867 112.12 117.087 111.949C117.31 111.774 117.552 111.653 117.815 111.585C118.079 111.515 118.339 111.479 118.594 111.479C118.757 111.479 118.945 111.499 119.156 111.539C119.37 111.576 119.576 111.654 119.774 111.773C119.975 111.892 120.141 112.072 120.273 112.312C120.405 112.552 120.472 112.874 120.472 113.277V116.622H119.692V115.934H119.652C119.599 116.044 119.511 116.162 119.388 116.288C119.264 116.413 119.1 116.52 118.895 116.608C118.69 116.697 118.44 116.741 118.145 116.741ZM118.264 116.04C118.572 116.04 118.832 115.979 119.044 115.858C119.258 115.737 119.418 115.581 119.526 115.389C119.637 115.197 119.692 114.996 119.692 114.784V114.07C119.659 114.11 119.586 114.146 119.473 114.179C119.363 114.21 119.235 114.238 119.09 114.262C118.947 114.284 118.807 114.304 118.67 114.321C118.536 114.337 118.427 114.35 118.343 114.361C118.141 114.388 117.951 114.431 117.775 114.49C117.601 114.547 117.46 114.634 117.352 114.751C117.246 114.866 117.193 115.022 117.193 115.22C117.193 115.491 117.293 115.696 117.494 115.835C117.696 115.972 117.953 116.04 118.264 116.04ZM121.445 116.622V115.895H121.631C121.783 115.895 121.909 115.865 122.011 115.805C122.112 115.744 122.194 115.637 122.255 115.485C122.319 115.331 122.368 115.117 122.401 114.844C122.436 114.568 122.461 114.218 122.477 113.793L122.569 111.545H125.953V116.622H125.174V112.272H123.31L123.23 114.083C123.213 114.5 123.175 114.867 123.118 115.184C123.063 115.499 122.978 115.763 122.863 115.977C122.751 116.191 122.601 116.352 122.414 116.46C122.227 116.568 121.992 116.622 121.71 116.622H121.445ZM128.059 113.383H129.513C130.108 113.383 130.563 113.534 130.878 113.836C131.193 114.137 131.35 114.52 131.35 114.982C131.35 115.286 131.28 115.563 131.139 115.812C130.998 116.059 130.791 116.256 130.518 116.404C130.244 116.549 129.909 116.622 129.513 116.622H127.384V111.545H128.164V115.895H129.513C129.821 115.895 130.075 115.813 130.273 115.65C130.471 115.487 130.57 115.278 130.57 115.022C130.57 114.753 130.471 114.534 130.273 114.364C130.075 114.195 129.821 114.11 129.513 114.11H128.059V113.383ZM135.935 113.727V114.454H133.132V113.727H135.935ZM133.317 111.545V116.622H132.538V111.545H133.317ZM136.53 111.545V116.622H135.75V111.545H136.53ZM138.628 113.383H140.083C140.677 113.383 141.132 113.534 141.447 113.836C141.762 114.137 141.92 114.52 141.92 114.982C141.92 115.286 141.85 115.563 141.709 115.812C141.568 116.059 141.361 116.256 141.087 116.404C140.814 116.549 140.479 116.622 140.083 116.622H137.954V111.545H138.734V115.895H140.083C140.391 115.895 140.644 115.813 140.843 115.65C141.041 115.487 141.14 115.278 141.14 115.022C141.14 114.753 141.041 114.534 140.843 114.364C140.644 114.195 140.391 114.11 140.083 114.11H138.628V113.383ZM142.727 116.622V111.545H143.507V116.622H142.727ZM145.714 115.472L148.16 111.545H149.058V116.622H148.279V112.695L145.846 116.622H144.934V111.545H145.714V115.472ZM147.644 109.853H148.371C148.371 110.21 148.248 110.502 148.001 110.729C147.754 110.956 147.419 111.069 146.996 111.069C146.58 111.069 146.248 110.956 146.002 110.729C145.757 110.502 145.635 110.21 145.635 109.853H146.362C146.362 110.025 146.409 110.176 146.504 110.306C146.601 110.436 146.765 110.501 146.996 110.501C147.228 110.501 147.393 110.436 147.492 110.306C147.594 110.176 147.644 110.025 147.644 109.853ZM49.7632 122.888V127.237H50.477V129.603H49.6971V127.964H45.7709V122.888H46.5509V127.237H48.9833V122.888H49.7632ZM53.7522 128.07C53.2631 128.07 52.8411 127.962 52.4864 127.746C52.1339 127.528 51.8618 127.224 51.6701 126.834C51.4806 126.441 51.3859 125.985 51.3859 125.465C51.3859 124.945 51.4806 124.487 51.6701 124.091C51.8618 123.692 52.1284 123.381 52.4699 123.159C52.8136 122.934 53.2146 122.822 53.6729 122.822C53.9373 122.822 54.1983 122.866 54.4561 122.954C54.7139 123.042 54.9485 123.185 55.16 123.383C55.3716 123.579 55.5401 123.839 55.6657 124.163C55.7913 124.487 55.8541 124.886 55.8541 125.36V125.69H51.9411V125.016H55.0609C55.0609 124.73 55.0036 124.474 54.889 124.249C54.7767 124.025 54.6158 123.847 54.4065 123.717C54.1994 123.587 53.9549 123.522 53.6729 123.522C53.3622 123.522 53.0934 123.599 52.8665 123.754C52.6417 123.906 52.4688 124.104 52.3476 124.348C52.2264 124.593 52.1659 124.855 52.1659 125.135V125.584C52.1659 125.968 52.2319 126.293 52.3641 126.559C52.4985 126.824 52.6847 127.025 52.9226 127.164C53.1606 127.301 53.4371 127.369 53.7522 127.369C53.9571 127.369 54.1421 127.34 54.3074 127.283C54.4748 127.224 54.6192 127.135 54.7403 127.019C54.8615 126.9 54.9552 126.752 55.0212 126.576L55.7747 126.787C55.6954 127.043 55.5621 127.268 55.3748 127.462C55.1876 127.653 54.9562 127.803 54.6808 127.911C54.4054 128.017 54.0959 128.07 53.7522 128.07ZM60.4379 125.069V125.796H57.6354V125.069H60.4379ZM57.8204 122.888V127.964H57.0405V122.888H57.8204ZM61.0328 122.888V127.964H60.2528V122.888H61.0328ZM61.7665 123.615V122.888H65.8909V123.615H64.2253V127.964H63.4453V123.615H61.7665ZM67.0286 129.868V122.888H67.7821V123.694H67.8747C67.9319 123.606 68.0113 123.494 68.1126 123.357C68.2162 123.218 68.3638 123.095 68.5555 122.987C68.7493 122.877 69.0115 122.822 69.342 122.822C69.7695 122.822 70.1462 122.928 70.4723 123.142C70.7984 123.356 71.0528 123.659 71.2357 124.051C71.4186 124.443 71.51 124.906 71.51 125.439C71.51 125.977 71.4186 126.443 71.2357 126.837C71.0528 127.229 70.7995 127.533 70.4756 127.749C70.1517 127.963 69.7783 128.07 69.3553 128.07C69.0292 128.07 68.7681 128.016 68.572 127.908C68.3759 127.798 68.225 127.673 68.1192 127.534C68.0135 127.393 67.9319 127.277 67.8747 127.184H67.8086V129.868H67.0286ZM67.7953 125.426C67.7953 125.809 67.8515 126.147 67.9639 126.44C68.0763 126.731 68.2404 126.959 68.4563 127.124C68.6722 127.288 68.9366 127.369 69.2495 127.369C69.5756 127.369 69.8477 127.283 70.0658 127.111C70.2861 126.937 70.4514 126.704 70.5615 126.411C70.6739 126.115 70.7301 125.787 70.7301 125.426C70.7301 125.069 70.675 124.747 70.5648 124.461C70.4569 124.172 70.2927 123.944 70.0724 123.777C69.8543 123.607 69.58 123.522 69.2495 123.522C68.9322 123.522 68.6656 123.603 68.4497 123.763C68.2338 123.922 68.0708 124.145 67.9606 124.431C67.8504 124.715 67.7953 125.047 67.7953 125.426ZM81.1339 124.58C81.1339 125.294 81.0047 125.91 80.7471 126.43C80.4894 126.95 80.1357 127.351 79.6861 127.633C79.2368 127.915 78.7235 128.056 78.1462 128.056C77.5689 128.056 77.0556 127.915 76.606 127.633C76.1566 127.351 75.803 126.95 75.5453 126.43C75.2874 125.91 75.1585 125.294 75.1585 124.58C75.1585 123.866 75.2874 123.249 75.5453 122.729C75.803 122.209 76.1566 121.808 76.606 121.526C77.0556 121.244 77.5689 121.103 78.1462 121.103C78.7235 121.103 79.2368 121.244 79.6861 121.526C80.1357 121.808 80.4894 122.209 80.7471 122.729C81.0047 123.249 81.1339 123.866 81.1339 124.58ZM80.3405 124.58C80.3405 123.994 80.2425 123.499 80.0465 123.096C79.8525 122.693 79.5893 122.388 79.2566 122.18C78.9262 121.973 78.556 121.87 78.1462 121.87C77.7364 121.87 77.365 121.973 77.0323 122.18C76.7019 122.388 76.4387 122.693 76.2424 123.096C76.0487 123.499 75.9516 123.994 75.9516 124.58C75.9516 125.166 76.0487 125.66 76.2424 126.064C76.4387 126.467 76.7019 126.772 77.0323 126.979C77.365 127.186 77.7364 127.29 78.1462 127.29C78.556 127.29 78.9262 127.186 79.2566 126.979C79.5893 126.772 79.8525 126.467 80.0465 126.064C80.2425 125.66 80.3405 125.166 80.3405 124.58ZM85.1822 126.906L86.9536 122.888H87.6938L85.4995 127.964H84.8649L82.7102 122.888H83.4372L85.1822 126.906ZM83.1859 122.888V127.964H82.4062V122.888H83.1859ZM87.1784 127.964V122.888H87.9584V127.964H87.1784ZM91.4484 128.07C90.9723 128.07 90.5625 127.957 90.2187 127.733C89.875 127.508 89.6106 127.198 89.4257 126.804C89.2407 126.41 89.1479 125.959 89.1479 125.452C89.1479 124.937 89.2427 124.482 89.4323 124.087C89.624 123.691 89.8907 123.381 90.2321 123.159C90.5759 122.934 90.9766 122.822 91.435 122.822C91.7918 122.822 92.1135 122.888 92.4 123.02C92.6864 123.152 92.9211 123.337 93.104 123.575C93.287 123.813 93.4004 124.091 93.4443 124.408H92.6643C92.605 124.177 92.4727 123.972 92.2679 123.793C92.0652 123.613 91.7918 123.522 91.4484 123.522C91.1442 123.522 90.8775 123.601 90.6486 123.76C90.4215 123.917 90.244 124.138 90.1164 124.424C89.9907 124.709 89.9279 125.042 89.9279 125.426C89.9279 125.818 89.9896 126.159 90.1132 126.45C90.2385 126.741 90.4151 126.967 90.6419 127.128C90.8711 127.289 91.1398 127.369 91.4484 127.369C91.6511 127.369 91.8349 127.334 92.0001 127.263C92.1653 127.193 92.3054 127.091 92.4197 126.959C92.5343 126.827 92.616 126.668 92.6643 126.483H93.4443C93.4004 126.783 93.2913 127.053 93.1171 127.293C92.9453 127.531 92.7172 127.72 92.4331 127.861C92.151 128 91.8227 128.07 91.4484 128.07ZM94.5846 127.964V122.888H95.3644V125.095H95.88L97.7044 122.888H98.7089L96.66 125.333L98.7353 127.964H97.7308L96.0653 125.822H95.3644V127.964H94.5846ZM101.436 128.07C100.978 128.07 100.576 127.961 100.23 127.742C99.8864 127.524 99.6177 127.219 99.4237 126.827C99.2321 126.435 99.1361 125.977 99.1361 125.452C99.1361 124.923 99.2321 124.462 99.4237 124.067C99.6177 123.673 99.8864 123.367 100.23 123.149C100.576 122.931 100.978 122.822 101.436 122.822C101.895 122.822 102.296 122.931 102.639 123.149C102.985 123.367 103.254 123.673 103.446 124.067C103.64 124.462 103.736 124.923 103.736 125.452C103.736 125.977 103.64 126.435 103.446 126.827C103.254 127.219 102.985 127.524 102.639 127.742C102.296 127.961 101.895 128.07 101.436 128.07ZM101.436 127.369C101.784 127.369 102.071 127.28 102.296 127.101C102.52 126.923 102.687 126.688 102.795 126.397C102.903 126.107 102.957 125.792 102.957 125.452C102.957 125.113 102.903 124.797 102.795 124.504C102.687 124.211 102.52 123.974 102.296 123.793C102.071 123.613 101.784 123.522 101.436 123.522C101.088 123.522 100.802 123.613 100.577 123.793C100.352 123.974 100.186 124.211 100.078 124.504C99.9702 124.797 99.9161 125.113 99.9161 125.452C99.9161 125.792 99.9702 126.107 100.078 126.397C100.186 126.688 100.352 126.923 100.577 127.101C100.802 127.28 101.088 127.369 101.436 127.369ZM105.707 126.814L108.153 122.888H109.052V127.964H108.272V124.038L105.839 127.964H104.927V122.888H105.707V126.814ZM107.637 121.196H108.364C108.364 121.552 108.241 121.844 107.994 122.071C107.747 122.298 107.412 122.412 106.989 122.412C106.573 122.412 106.241 122.298 105.995 122.071C105.75 121.844 105.628 121.552 105.628 121.196H106.355C106.355 121.367 106.402 121.518 106.497 121.648C106.594 121.778 106.758 121.843 106.989 121.843C107.221 121.843 107.386 121.778 107.485 121.648C107.586 121.518 107.637 121.367 107.637 121.196ZM115.16 128.07C114.701 128.07 114.299 127.961 113.953 127.742C113.61 127.524 113.341 127.219 113.147 126.827C112.955 126.435 112.86 125.977 112.86 125.452C112.86 124.923 112.955 124.462 113.147 124.067C113.341 123.673 113.61 123.367 113.953 123.149C114.299 122.931 114.701 122.822 115.16 122.822C115.618 122.822 116.019 122.931 116.363 123.149C116.709 123.367 116.978 123.673 117.169 124.067C117.363 124.462 117.46 124.923 117.46 125.452C117.46 125.977 117.363 126.435 117.169 126.827C116.978 127.219 116.709 127.524 116.363 127.742C116.019 127.961 115.618 128.07 115.16 128.07ZM115.16 127.369C115.508 127.369 115.794 127.28 116.019 127.101C116.244 126.923 116.41 126.688 116.518 126.397C116.626 126.107 116.68 125.792 116.68 125.452C116.68 125.113 116.626 124.797 116.518 124.504C116.41 124.211 116.244 123.974 116.019 123.793C115.794 123.613 115.508 123.522 115.16 123.522C114.812 123.522 114.525 123.613 114.3 123.793C114.076 123.974 113.91 124.211 113.801 124.504C113.693 124.797 113.64 125.113 113.64 125.452C113.64 125.792 113.693 126.107 113.801 126.397C113.91 126.688 114.076 126.923 114.3 127.101C114.525 127.28 114.812 127.369 115.16 127.369ZM122.418 120.984L122.815 121.46C122.661 121.61 122.482 121.714 122.279 121.774C122.077 121.833 121.847 121.87 121.592 121.883C121.336 121.896 121.052 121.909 120.739 121.923C120.387 121.936 120.095 122.022 119.863 122.18C119.632 122.339 119.454 122.568 119.328 122.868C119.202 123.167 119.122 123.535 119.087 123.972H119.153C119.325 123.654 119.563 123.421 119.867 123.271C120.171 123.121 120.497 123.046 120.845 123.046C121.242 123.046 121.598 123.139 121.916 123.324C122.233 123.509 122.484 123.783 122.669 124.147C122.854 124.51 122.947 124.959 122.947 125.492C122.947 126.023 122.852 126.481 122.663 126.867C122.475 127.252 122.212 127.55 121.873 127.759C121.536 127.966 121.14 128.07 120.686 128.07C120.232 128.07 119.835 127.963 119.493 127.749C119.152 127.533 118.886 127.214 118.697 126.791C118.507 126.365 118.412 125.84 118.412 125.214V124.672C118.412 123.542 118.604 122.685 118.988 122.101C119.373 121.517 119.953 121.215 120.726 121.196C120.999 121.187 121.243 121.185 121.456 121.189C121.67 121.193 121.856 121.183 122.015 121.159C122.173 121.135 122.308 121.077 122.418 120.984ZM120.686 127.369C120.993 127.369 121.256 127.292 121.476 127.138C121.699 126.983 121.87 126.766 121.988 126.487C122.107 126.205 122.167 125.873 122.167 125.492C122.167 125.122 122.106 124.807 121.985 124.547C121.866 124.287 121.695 124.088 121.473 123.952C121.25 123.815 120.984 123.747 120.673 123.747C120.446 123.747 120.242 123.785 120.062 123.863C119.881 123.94 119.727 124.053 119.599 124.203C119.471 124.353 119.372 124.536 119.302 124.752C119.233 124.968 119.197 125.214 119.192 125.492C119.192 126.06 119.326 126.515 119.592 126.857C119.859 127.198 120.224 127.369 120.686 127.369ZM123.69 127.964V127.237H123.876C124.027 127.237 124.154 127.207 124.255 127.148C124.357 127.086 124.438 126.979 124.5 126.827C124.564 126.673 124.613 126.459 124.645 126.186C124.681 125.91 124.706 125.56 124.722 125.135L124.814 122.888H128.198V127.964H127.418V123.615H125.554L125.475 125.426C125.457 125.842 125.42 126.209 125.363 126.526C125.308 126.841 125.223 127.106 125.108 127.319C124.996 127.533 124.846 127.694 124.659 127.802C124.472 127.91 124.237 127.964 123.955 127.964H123.69ZM131.123 128.083C130.801 128.083 130.509 128.022 130.247 127.901C129.985 127.778 129.777 127.6 129.623 127.369C129.469 127.135 129.391 126.853 129.391 126.523C129.391 126.232 129.448 125.996 129.563 125.816C129.678 125.633 129.831 125.49 130.023 125.386C130.214 125.283 130.426 125.205 130.657 125.155C130.891 125.102 131.125 125.06 131.361 125.029C131.67 124.99 131.92 124.96 132.111 124.94C132.305 124.918 132.446 124.882 132.534 124.831C132.625 124.78 132.67 124.692 132.67 124.567V124.54C132.67 124.214 132.58 123.961 132.402 123.78C132.226 123.599 131.958 123.509 131.599 123.509C131.227 123.509 130.935 123.59 130.723 123.754C130.512 123.917 130.363 124.091 130.277 124.276L129.537 124.011C129.669 123.703 129.845 123.463 130.066 123.291C130.288 123.117 130.53 122.996 130.793 122.927C131.057 122.857 131.317 122.822 131.572 122.822C131.736 122.822 131.923 122.841 132.134 122.881C132.348 122.918 132.554 122.997 132.752 123.116C132.953 123.235 133.119 123.414 133.251 123.654C133.384 123.895 133.45 124.216 133.45 124.619V127.964H132.67V127.277H132.63C132.577 127.387 132.489 127.505 132.366 127.63C132.242 127.756 132.078 127.863 131.873 127.951C131.668 128.039 131.418 128.083 131.123 128.083ZM131.242 127.382C131.551 127.382 131.811 127.322 132.022 127.2C132.236 127.079 132.397 126.923 132.505 126.731C132.615 126.54 132.67 126.338 132.67 126.126V125.413C132.637 125.452 132.564 125.489 132.452 125.522C132.341 125.552 132.214 125.58 132.068 125.604C131.925 125.626 131.785 125.646 131.649 125.664C131.514 125.679 131.405 125.692 131.321 125.703C131.119 125.73 130.929 125.773 130.753 125.832C130.579 125.89 130.438 125.977 130.33 126.093C130.224 126.208 130.171 126.364 130.171 126.563C130.171 126.834 130.272 127.039 130.472 127.177C130.675 127.314 130.931 127.382 131.242 127.382ZM136.936 128.07C136.459 128.07 136.05 127.957 135.706 127.733C135.362 127.508 135.098 127.198 134.913 126.804C134.728 126.41 134.635 125.959 134.635 125.452C134.635 124.937 134.73 124.482 134.92 124.087C135.111 123.691 135.378 123.381 135.719 123.159C136.063 122.934 136.464 122.822 136.922 122.822C137.279 122.822 137.601 122.888 137.887 123.02C138.174 123.152 138.408 123.337 138.591 123.575C138.774 123.813 138.888 124.091 138.932 124.408H138.152C138.092 124.177 137.96 123.972 137.755 123.793C137.552 123.613 137.279 123.522 136.936 123.522C136.631 123.522 136.365 123.601 136.136 123.76C135.909 123.917 135.732 124.138 135.604 124.424C135.478 124.709 135.415 125.042 135.415 125.426C135.415 125.818 135.477 126.159 135.6 126.45C135.726 126.741 135.902 126.967 136.129 127.128C136.358 127.289 136.627 127.369 136.936 127.369C137.138 127.369 137.322 127.334 137.488 127.263C137.653 127.193 137.793 127.091 137.907 126.959C138.022 126.827 138.103 126.668 138.152 126.483H138.932C138.888 126.783 138.779 127.053 138.604 127.293C138.433 127.531 138.204 127.72 137.92 127.861C137.638 128 137.31 128.07 136.936 128.07ZM139.672 123.615V122.888H143.796V123.615H142.131V127.964H141.351V123.615H139.672ZM145.714 126.814L148.16 122.888H149.058V127.964H148.279V124.038L145.846 127.964H144.934V122.888H145.714V126.814Z" fill="#ED5338"/>
</g>
<defs>
<clipPath id="clip0_3_59">
<rect width="105.57" height="20.3579" fill="white" transform="translate(43.6241 109.642)"/>
</clipPath>
</defs>
</svg>
