<svg width="170" height="132" viewBox="0 0 170 132" fill="none" xmlns="http://www.w3.org/2000/svg">
<path fill-rule="evenodd" clip-rule="evenodd" d="M133.83 80.405V65.5117H138.826V72.445C138.826 72.9511 138.719 73.5298 138.719 73.5298H138.934L144.373 65.5117H149.154V80.4021H144.157V73.4048C144.157 72.9045 144.265 72.4305 144.265 72.4305H144.05L138.611 80.4021H133.83V80.405Z" fill="#562212"/>
<path fill-rule="evenodd" clip-rule="evenodd" d="M123.469 65.1191C128.221 65.1191 131.763 68.481 131.763 72.9831C131.763 77.4851 128.218 80.8063 123.469 80.8063C118.719 80.8063 115.221 77.4443 115.221 72.9831C115.221 68.5218 118.766 65.1191 123.469 65.1191ZM123.469 76.1647C125.283 76.1647 126.493 74.7542 126.493 72.9801C126.493 71.2061 125.283 69.7549 123.469 69.7549C121.654 69.7549 120.444 71.1683 120.444 72.9801C120.444 74.792 121.7 76.1647 123.469 76.1647Z" fill="#562212"/>
<path fill-rule="evenodd" clip-rule="evenodd" d="M24.4493 82.9848C29.12 82.9848 32.418 86.3438 32.418 90.872C32.418 95.4002 29.12 98.672 24.4493 98.672C19.7786 98.672 16.5039 95.342 16.5039 90.872C16.5039 86.402 19.8339 82.9848 24.4493 82.9848ZM24.4493 95.9353C27.4536 95.9353 29.501 93.7454 29.501 90.8691C29.501 87.9928 27.4536 85.7157 24.4493 85.7157C21.4451 85.7157 19.4471 87.9347 19.4471 90.8691C19.4471 93.8036 21.4974 95.9353 24.4493 95.9353Z" fill="#562212"/>
<path fill-rule="evenodd" clip-rule="evenodd" d="M98.6624 91.7998C98.6915 91.4944 98.7119 91.189 98.7119 90.872C98.7119 86.3438 96.3678 82.9848 91.4673 82.9848C87.2736 82.9848 84.2461 86.3438 84.2461 90.872C84.2461 91.189 84.2664 91.4944 84.2955 91.7998H84.2897C84.6271 95.6852 87.1137 98.6749 92.3195 98.6749C94.8293 98.6749 96.9698 97.9042 98.5112 96.6508L97.3392 94.5103C96.1962 95.3653 94.4571 96.1651 92.4038 96.1651C89.1524 96.1651 87.5819 94.3969 87.2969 91.7998H98.6624ZM91.6128 85.4597C94.2913 85.4597 95.6931 87.2047 95.9316 89.4877H87.3434C87.7709 87.1262 89.4025 85.4597 91.6128 85.4597Z" fill="#562212"/>
<path fill-rule="evenodd" clip-rule="evenodd" d="M111.696 83.383V89.4875H103.724V83.383H100.758V98.2763H103.724V91.7938H111.696V98.2763H114.659V83.383H111.696Z" fill="#562212"/>
<path fill-rule="evenodd" clip-rule="evenodd" d="M130.272 83.383H116.705V86.0237H122.007V98.2763H124.973V86.0237H130.272V83.383Z" fill="#562212"/>
<path d="M149.153 83.383H146.189V98.2763H149.153V83.383Z" fill="#562212"/>
<path fill-rule="evenodd" clip-rule="evenodd" d="M40.9697 90.4416V90.3108C40.9697 90.3108 41.2402 90.2206 41.4932 89.9356C41.7404 89.6564 47.1702 83.3832 47.1702 83.3832H43.846L38.6169 89.4848H37.4362V83.3832H34.4727V98.2765H37.4362V91.794H38.7798L44.4219 98.2765H48.1125C48.1125 98.2765 41.787 91.1396 41.5107 90.8313C41.2519 90.5347 40.9697 90.4445 40.9697 90.4445V90.4416Z" fill="#562212"/>
<path fill-rule="evenodd" clip-rule="evenodd" d="M137.579 87.9374C136.195 87.9374 135.288 88.1148 135.288 88.1148V83.3859H132.324V98.2821C132.324 98.2821 134.761 98.5177 137.283 98.5177C141.936 98.5177 143.469 95.6792 143.469 93.0676C143.469 90.4559 142.099 87.9374 137.577 87.9374H137.579ZM137.05 96.0369C136.128 96.0369 135.288 95.9642 135.288 95.9642V90.5926C135.288 90.5926 135.939 90.4181 137.079 90.4181C139.566 90.4181 140.656 91.3779 140.656 93.1635C140.656 94.9492 139.673 96.0369 137.05 96.0369Z" fill="#562212"/>
<path fill-rule="evenodd" clip-rule="evenodd" d="M11.6156 83.3832L11.5371 85.262H11.3481C10.4029 83.8602 8.5154 82.9848 7.03508 82.9848C2.69012 82.9848 0.107565 86.3438 0.00286733 90.872C-0.0989224 95.3391 2.51562 98.6691 6.85768 98.6691C8.84694 98.6691 10.0888 98.1049 11.3044 96.6653H11.4964V97.9973C11.4964 100.879 9.49548 102.022 7.24157 102.022C5.16797 102.022 3.55387 101.24 2.56506 100.647L1.5966 103.107C2.53889 103.593 4.30421 104.649 7.24157 104.649C11.4062 104.649 14.4599 102.168 14.4599 97.404V83.389H11.6185L11.6156 83.3832ZM7.38117 95.9383C4.39146 95.9383 2.80936 93.7454 2.87334 90.872C2.94023 87.9376 4.62412 85.7186 7.61383 85.7186C9.26282 85.7186 11.4906 87.228 11.4906 89.9559V94.0653C10.5628 95.217 9.12322 95.9383 7.37826 95.9383H7.38117Z" fill="#562212"/>
<path fill-rule="evenodd" clip-rule="evenodd" d="M59.8631 83.3832V94.1759C58.9935 95.2606 57.6615 95.9354 55.9747 95.9354C53.2526 95.9354 52.0049 93.7425 52.0718 90.8691V83.3774H49.1955V90.8691C49.0937 95.3363 50.8823 98.6662 55.2244 98.6662C57.2107 98.6662 58.5631 98.0758 59.6711 96.6624H59.8602V97.9944C59.8602 100.877 57.8622 102.019 55.6053 102.019C53.5317 102.019 51.9177 101.237 50.9288 100.644L49.9604 103.104C50.8998 103.59 52.668 104.646 55.6053 104.646C59.7729 104.646 62.8237 102.165 62.8237 97.4011V83.3861H59.8602L59.8631 83.3832Z" fill="#562212"/>
<path fill-rule="evenodd" clip-rule="evenodd" d="M79.3869 83.3832C79.3869 83.3832 74.4835 90.2758 74.341 90.4794C74.1985 90.6859 74.152 90.8808 74.152 90.8808H74.0444C74.0444 90.8808 73.9833 90.6859 73.8292 90.4794C73.6721 90.2758 68.4081 83.3832 68.4081 83.3832H65.6133V98.2765H68.5768V88.7781C68.5768 88.1179 68.4372 87.7427 68.4372 87.7427H68.5768L74.0298 95.0716H74.1549L79.2153 87.7427H79.3549C79.3549 87.7427 79.2153 88.1354 79.2153 88.7694V98.2736H82.1788V83.3803H79.3898L79.3869 83.3832Z" fill="#562212"/>
<path fill-rule="evenodd" clip-rule="evenodd" d="M109.229 65.5146C109.229 65.5146 105.056 70.9385 104.887 71.1479C104.681 71.4009 104.663 71.5347 104.663 71.5347H104.448C104.448 71.5347 104.407 71.3893 104.209 71.145C103.916 70.7815 99.5911 65.5146 99.5911 65.5146H95.6504V80.4079H100.469V74.1551C100.469 73.4833 100.362 73.0732 100.362 73.0732H100.577L104.451 77.52H104.66L108.246 73.0732H108.464C108.464 73.0732 108.357 73.4745 108.357 74.1551V80.4079H113.176V65.5146H109.232H109.229Z" fill="#562212"/>
<path fill-rule="evenodd" clip-rule="evenodd" d="M140.221 35.955V20.8436H128.309V35.9463C128.309 41.2684 131.147 46.1834 135.757 48.8416L149.155 56.5776V42.8272L141.713 38.5288C140.791 37.9966 140.224 37.0136 140.224 35.9492L140.221 35.955Z" fill="#C59368"/>
<path fill-rule="evenodd" clip-rule="evenodd" d="M149.154 50.6244L162.556 42.8884C167.162 40.2273 170.001 35.3123 170.001 29.9902V0H149.154V11.9123H158.089V29.9989C158.089 31.0633 157.521 32.0463 156.599 32.5785L149.154 36.877V50.6244Z" fill="#ED5338"/>
<path fill-rule="evenodd" clip-rule="evenodd" d="M149.152 0L128.309 20.8465H149.152V0Z" fill="#562212"/>
<path d="M67.7243 112.455V113.158H64.5667V119H63.7741V112.455H67.7243ZM70.1309 119.102C69.6878 119.102 69.2989 118.997 68.9644 118.786C68.632 118.575 68.3721 118.28 68.1846 117.901C67.9992 117.521 67.9065 117.078 67.9065 116.571C67.9065 116.06 67.9992 115.613 68.1846 115.232C68.3721 114.85 68.632 114.554 68.9644 114.343C69.2989 114.132 69.6878 114.027 70.1309 114.027C70.5741 114.027 70.9619 114.132 71.2943 114.343C71.6288 114.554 71.8888 114.85 72.0741 115.232C72.2616 115.613 72.3554 116.06 72.3554 116.571C72.3554 117.078 72.2616 117.521 72.0741 117.901C71.8888 118.28 71.6288 118.575 71.2943 118.786C70.9619 118.997 70.5741 119.102 70.1309 119.102ZM70.1309 118.425C70.4676 118.425 70.7446 118.338 70.9619 118.166C71.1792 117.993 71.3401 117.766 71.4445 117.485C71.5489 117.204 71.6011 116.899 71.6011 116.571C71.6011 116.243 71.5489 115.937 71.4445 115.654C71.3401 115.37 71.1792 115.141 70.9619 114.967C70.7446 114.792 70.4676 114.705 70.1309 114.705C69.7943 114.705 69.5173 114.792 69.3 114.967C69.0827 115.141 68.9218 115.37 68.8174 115.654C68.713 115.937 68.6608 116.243 68.6608 116.571C68.6608 116.899 68.713 117.204 68.8174 117.485C68.9218 117.766 69.0827 117.993 69.3 118.166C69.5173 118.338 69.7943 118.425 70.1309 118.425ZM75.5011 119.102C75.0408 119.102 74.6445 118.994 74.3121 118.776C73.9798 118.559 73.7241 118.26 73.5451 117.878C73.3661 117.497 73.2766 117.061 73.2766 116.571C73.2766 116.072 73.3683 115.632 73.5515 115.251C73.7369 114.868 73.9947 114.568 74.3249 114.353C74.6573 114.136 75.0451 114.027 75.4883 114.027C75.8335 114.027 76.1445 114.091 76.4215 114.219C76.6985 114.347 76.9254 114.526 77.1023 114.756C77.2791 114.986 77.3888 115.254 77.4315 115.561H76.6772C76.6197 115.337 76.4918 115.139 76.2937 114.967C76.0977 114.792 75.8335 114.705 75.5011 114.705C75.207 114.705 74.9492 114.781 74.7276 114.935C74.5082 115.086 74.3366 115.3 74.2131 115.577C74.0916 115.852 74.0309 116.175 74.0309 116.545C74.0309 116.925 74.0906 117.255 74.2099 117.536C74.3313 117.817 74.5018 118.036 74.7212 118.191C74.9428 118.347 75.2028 118.425 75.5011 118.425C75.6971 118.425 75.875 118.391 76.0348 118.322C76.1946 118.254 76.3299 118.156 76.4407 118.028C76.5515 117.901 76.6303 117.747 76.6772 117.568H77.4315C77.3888 117.858 77.2834 118.119 77.1151 118.351C76.9489 118.581 76.7283 118.765 76.4535 118.901C76.1808 119.035 75.8633 119.102 75.5011 119.102ZM79.0199 120.841C78.892 120.841 78.7781 120.83 78.6779 120.809C78.5778 120.79 78.5085 120.771 78.4702 120.751L78.6619 120.087C78.8452 120.134 79.0071 120.151 79.1477 120.138C79.2884 120.125 79.413 120.062 79.5217 119.949C79.6325 119.838 79.7337 119.658 79.8253 119.409L79.9659 119.026L78.1506 114.091H78.9688L80.3239 118.003H80.375L81.7301 114.091H82.5483L80.4645 119.716C80.3707 119.969 80.2546 120.179 80.1161 120.346C79.9776 120.514 79.8168 120.638 79.6335 120.719C79.4524 120.8 79.2479 120.841 79.0199 120.841ZM82.6066 120.406V118.297H83.0157C83.1159 118.192 83.2021 118.08 83.2746 117.958C83.347 117.837 83.4099 117.693 83.4632 117.527C83.5186 117.358 83.5654 117.154 83.6038 116.913C83.6421 116.67 83.6762 116.377 83.7061 116.034L83.8722 114.091H86.9916V118.297H87.7458V120.406H86.9916V119H83.3609V120.406H82.6066ZM83.8722 118.297H86.2373V114.794H84.5754L84.4475 116.034C84.3943 116.548 84.3282 116.996 84.2494 117.38C84.1705 117.763 84.0448 118.069 83.8722 118.297ZM90.1916 119.115C89.8805 119.115 89.5982 119.056 89.3446 118.939C89.0911 118.82 88.8897 118.648 88.7406 118.425C88.5914 118.199 88.5169 117.926 88.5169 117.607C88.5169 117.325 88.5723 117.097 88.6831 116.923C88.7939 116.746 88.9419 116.607 89.1273 116.507C89.3127 116.407 89.5172 116.332 89.7409 116.283C89.9668 116.232 90.1937 116.192 90.4217 116.162C90.72 116.124 90.9618 116.095 91.1472 116.076C91.3347 116.054 91.4711 116.019 91.5563 115.97C91.6436 115.921 91.6873 115.836 91.6873 115.714V115.689C91.6873 115.374 91.601 115.129 91.4284 114.954C91.258 114.779 90.9991 114.692 90.6518 114.692C90.2917 114.692 90.0094 114.771 89.8049 114.928C89.6003 115.086 89.4565 115.254 89.3734 115.433L88.6575 115.178C88.7853 114.879 88.9558 114.647 89.1689 114.481C89.3841 114.312 89.6184 114.195 89.872 114.129C90.1277 114.061 90.3791 114.027 90.6262 114.027C90.7839 114.027 90.965 114.046 91.1696 114.085C91.3762 114.121 91.5755 114.196 91.7672 114.311C91.9611 114.426 92.122 114.6 92.2498 114.832C92.3777 115.065 92.4416 115.376 92.4416 115.766V119H91.6873V118.335H91.649C91.5978 118.442 91.5126 118.556 91.3933 118.677C91.274 118.799 91.1152 118.902 90.9171 118.987C90.7189 119.072 90.4771 119.115 90.1916 119.115ZM90.3066 118.438C90.6049 118.438 90.8564 118.379 91.0609 118.262C91.2676 118.145 91.4231 117.993 91.5275 117.808C91.6341 117.623 91.6873 117.428 91.6873 117.223V116.533C91.6554 116.571 91.585 116.606 91.4764 116.638C91.3699 116.668 91.2463 116.695 91.1056 116.718C90.9672 116.739 90.8319 116.759 90.6998 116.776C90.5698 116.79 90.4643 116.803 90.3833 116.814C90.1873 116.839 90.0041 116.881 89.8336 116.939C89.6653 116.994 89.5289 117.078 89.4245 117.191C89.3223 117.302 89.2711 117.453 89.2711 117.645C89.2711 117.907 89.3681 118.105 89.562 118.239C89.758 118.371 90.0062 118.438 90.3066 118.438ZM93.8183 120.841V114.091H94.547V114.871H94.6365C94.6919 114.786 94.7686 114.677 94.8666 114.545C94.9667 114.411 95.1095 114.291 95.2948 114.187C95.4823 114.08 95.7359 114.027 96.0555 114.027C96.4688 114.027 96.8332 114.13 97.1485 114.337C97.4639 114.544 97.71 114.837 97.8868 115.216C98.0637 115.595 98.1521 116.043 98.1521 116.558C98.1521 117.078 98.0637 117.529 97.8868 117.91C97.71 118.289 97.4649 118.583 97.1517 118.792C96.8385 118.999 96.4774 119.102 96.0683 119.102C95.7529 119.102 95.5004 119.05 95.3108 118.946C95.1212 118.839 94.9752 118.719 94.873 118.585C94.7707 118.448 94.6919 118.335 94.6365 118.246H94.5725V120.841H93.8183ZM94.5597 116.545C94.5597 116.916 94.6141 117.243 94.7227 117.527C94.8314 117.808 94.9901 118.028 95.199 118.188C95.4078 118.346 95.6634 118.425 95.966 118.425C96.2813 118.425 96.5445 118.342 96.7554 118.175C96.9685 118.007 97.1283 117.781 97.2348 117.498C97.3435 117.212 97.3978 116.895 97.3978 116.545C97.3978 116.2 97.3445 115.889 97.238 115.612C97.1336 115.333 96.9749 115.113 96.7618 114.951C96.5509 114.787 96.2856 114.705 95.966 114.705C95.6592 114.705 95.4014 114.782 95.1926 114.938C94.9838 115.091 94.8261 115.306 94.7195 115.583C94.613 115.858 94.5597 116.179 94.5597 116.545ZM101.297 119.102C100.837 119.102 100.44 118.994 100.108 118.776C99.7757 118.559 99.52 118.26 99.341 117.878C99.162 117.497 99.0725 117.061 99.0725 116.571C99.0725 116.072 99.1642 115.632 99.3474 115.251C99.5328 114.868 99.7906 114.568 100.121 114.353C100.453 114.136 100.841 114.027 101.284 114.027C101.629 114.027 101.94 114.091 102.217 114.219C102.494 114.347 102.721 114.526 102.898 114.756C103.075 114.986 103.185 115.254 103.227 115.561H102.473C102.416 115.337 102.288 115.139 102.09 114.967C101.894 114.792 101.629 114.705 101.297 114.705C101.003 114.705 100.745 114.781 100.524 114.935C100.304 115.086 100.133 115.3 100.009 115.577C99.8875 115.852 99.8268 116.175 99.8268 116.545C99.8268 116.925 99.8865 117.255 100.006 117.536C100.127 117.817 100.298 118.036 100.517 118.191C100.739 118.347 100.999 118.425 101.297 118.425C101.493 118.425 101.671 118.391 101.831 118.322C101.991 118.254 102.126 118.156 102.237 118.028C102.347 117.901 102.426 117.747 102.473 117.568H103.227C103.185 117.858 103.079 118.119 102.911 118.351C102.745 118.581 102.524 118.765 102.249 118.901C101.977 119.035 101.659 119.102 101.297 119.102ZM103.943 114.794V114.091H107.932V114.794H106.321V119H105.567V114.794H103.943ZM109.032 119V114.091H111.039C111.568 114.091 111.987 114.21 112.298 114.449C112.61 114.688 112.765 115.003 112.765 115.395C112.765 115.693 112.677 115.924 112.5 116.088C112.323 116.25 112.096 116.36 111.819 116.418C112 116.443 112.176 116.507 112.346 116.609C112.519 116.712 112.662 116.852 112.775 117.031C112.888 117.208 112.944 117.425 112.944 117.683C112.944 117.935 112.88 118.159 112.752 118.358C112.624 118.556 112.441 118.712 112.203 118.827C111.964 118.942 111.678 119 111.346 119H109.032ZM109.748 118.31H111.346C111.606 118.31 111.809 118.248 111.956 118.124C112.104 118.001 112.177 117.832 112.177 117.619C112.177 117.366 112.104 117.167 111.956 117.022C111.809 116.875 111.606 116.801 111.346 116.801H109.748V118.31ZM109.748 116.149H111.039C111.242 116.149 111.415 116.121 111.56 116.066C111.705 116.009 111.816 115.928 111.893 115.823C111.971 115.717 112.011 115.591 112.011 115.446C112.011 115.239 111.925 115.077 111.752 114.96C111.579 114.841 111.342 114.781 111.039 114.781H109.748V116.149ZM116.144 119.102C115.671 119.102 115.263 118.998 114.92 118.789C114.579 118.578 114.316 118.284 114.131 117.907C113.947 117.528 113.856 117.087 113.856 116.584C113.856 116.081 113.947 115.638 114.131 115.254C114.316 114.869 114.574 114.568 114.904 114.353C115.236 114.136 115.624 114.027 116.067 114.027C116.323 114.027 116.576 114.07 116.825 114.155C117.074 114.24 117.301 114.379 117.506 114.57C117.71 114.76 117.873 115.011 117.995 115.325C118.116 115.638 118.177 116.023 118.177 116.482V116.801H114.393V116.149H117.41C117.41 115.872 117.354 115.625 117.244 115.408C117.135 115.19 116.979 115.019 116.777 114.893C116.577 114.767 116.34 114.705 116.067 114.705C115.767 114.705 115.507 114.779 115.288 114.928C115.07 115.075 114.903 115.267 114.786 115.504C114.669 115.74 114.61 115.994 114.61 116.264V116.699C114.61 117.07 114.674 117.384 114.802 117.642C114.932 117.897 115.112 118.092 115.342 118.227C115.572 118.359 115.839 118.425 116.144 118.425C116.342 118.425 116.521 118.397 116.681 118.342C116.843 118.284 116.983 118.199 117.1 118.086C117.217 117.971 117.307 117.828 117.371 117.658L118.1 117.862C118.023 118.109 117.894 118.327 117.713 118.514C117.532 118.7 117.309 118.844 117.042 118.949C116.776 119.051 116.476 119.102 116.144 119.102ZM122.61 116.2V116.903H119.899V116.2H122.61ZM120.078 114.091V119H119.324V114.091H120.078ZM123.185 114.091V119H122.431V114.091H123.185ZM127.848 116.2V116.903H125.138V116.2H127.848ZM125.317 114.091V119H124.562V114.091H125.317ZM128.423 114.091V119H127.669V114.091H128.423ZM130.453 115.868H131.859C132.434 115.868 132.874 116.014 133.179 116.306C133.484 116.598 133.636 116.967 133.636 117.415C133.636 117.709 133.568 117.976 133.431 118.217C133.295 118.456 133.095 118.646 132.831 118.789C132.566 118.93 132.242 119 131.859 119H129.801V114.091H130.555V118.297H131.859C132.157 118.297 132.402 118.218 132.594 118.06C132.786 117.903 132.882 117.7 132.882 117.453C132.882 117.193 132.786 116.981 132.594 116.817C132.402 116.653 132.157 116.571 131.859 116.571H130.453V115.868ZM134.416 119V114.091H135.17V119H134.416ZM138.609 119.102C138.136 119.102 137.728 118.998 137.385 118.789C137.044 118.578 136.781 118.284 136.595 117.907C136.412 117.528 136.321 117.087 136.321 116.584C136.321 116.081 136.412 115.638 136.595 115.254C136.781 114.869 137.039 114.568 137.369 114.353C137.701 114.136 138.089 114.027 138.532 114.027C138.788 114.027 139.04 114.07 139.29 114.155C139.539 114.24 139.766 114.379 139.97 114.57C140.175 114.76 140.338 115.011 140.459 115.325C140.581 115.638 140.642 116.023 140.642 116.482V116.801H136.858V116.149H139.875C139.875 115.872 139.819 115.625 139.708 115.408C139.6 115.19 139.444 115.019 139.242 114.893C139.041 114.767 138.805 114.705 138.532 114.705C138.232 114.705 137.972 114.779 137.752 114.928C137.535 115.075 137.368 115.267 137.251 115.504C137.133 115.74 137.075 115.994 137.075 116.264V116.699C137.075 117.07 137.139 117.384 137.267 117.642C137.397 117.897 137.577 118.092 137.807 118.227C138.037 118.359 138.304 118.425 138.609 118.425C138.807 118.425 138.986 118.397 139.146 118.342C139.308 118.284 139.447 118.199 139.565 118.086C139.682 117.971 139.772 117.828 139.836 117.658L140.565 117.862C140.488 118.109 140.359 118.327 140.178 118.514C139.997 118.7 139.773 118.844 139.507 118.949C139.241 119.051 138.941 119.102 138.609 119.102ZM145.074 117.888L147.44 114.091H148.309V119H147.555V115.203L145.202 119H144.32V114.091H145.074V117.888ZM49.2354 128.977L50.9484 125.091H51.6643L49.5422 130H48.9285L46.8447 125.091H47.5479L49.2354 128.977ZM47.305 125.091V130H46.5507V125.091H47.305ZM51.1657 130V125.091H51.92V130H51.1657ZM53.6107 131.841C53.4829 131.841 53.3689 131.83 53.2687 131.809C53.1686 131.79 53.0993 131.771 53.061 131.751L53.2528 131.087C53.436 131.134 53.5979 131.151 53.7385 131.138C53.8792 131.125 54.0038 131.062 54.1125 130.949C54.2233 130.838 54.3245 130.658 54.4161 130.409L54.5567 130.026L52.7414 125.091H53.5596L54.9147 129.003H54.9658L56.3209 125.091H57.1391L55.0553 130.716C54.9616 130.969 54.8454 131.179 54.7069 131.346C54.5684 131.514 54.4076 131.638 54.2243 131.719C54.0432 131.8 53.8387 131.841 53.6107 131.841ZM61.4202 127.2V127.903H58.71V127.2H61.4202ZM58.8889 125.091V130H58.1347V125.091H58.8889ZM61.9955 125.091V130H61.2412V125.091H61.9955ZM64.1272 128.888L66.4923 125.091H67.3616V130H66.6073V126.203L64.2551 130H63.373V125.091H64.1272V128.888ZM72.6039 125.091V129.297H73.2942V131.585H72.54V130H68.7431V125.091H69.4973V129.297H71.8496V125.091H72.6039ZM75.2102 128.888L77.5753 125.091H78.4446V130H77.6903V126.203L75.3381 130H74.456V125.091H75.2102V128.888ZM79.8261 130V125.091H83.6869V130H82.9326V125.794H80.5803V130H79.8261ZM86.509 130.115C86.1979 130.115 85.9156 130.056 85.662 129.939C85.4085 129.82 85.2071 129.648 85.058 129.425C84.9088 129.199 84.8343 128.926 84.8343 128.607C84.8343 128.325 84.8896 128.097 85.0004 127.923C85.1112 127.746 85.2593 127.607 85.4447 127.507C85.6301 127.407 85.8346 127.332 86.0583 127.283C86.2842 127.232 86.5111 127.192 86.7391 127.162C87.0374 127.124 87.2792 127.095 87.4646 127.076C87.6521 127.054 87.7884 127.019 87.8737 126.97C87.961 126.921 88.0047 126.836 88.0047 126.714V126.689C88.0047 126.374 87.9184 126.129 87.7458 125.954C87.5754 125.779 87.3165 125.692 86.9692 125.692C86.6091 125.692 86.3268 125.771 86.1222 125.928C85.9177 126.086 85.7739 126.254 85.6908 126.433L84.9749 126.178C85.1027 125.879 85.2732 125.647 85.4862 125.481C85.7014 125.312 85.9358 125.195 86.1894 125.129C86.445 125.061 86.6965 125.027 86.9436 125.027C87.1013 125.027 87.2824 125.046 87.4869 125.085C87.6936 125.121 87.8928 125.196 88.0846 125.311C88.2785 125.426 88.4394 125.6 88.5672 125.832C88.695 126.065 88.759 126.376 88.759 126.766V130H88.0047V129.335H87.9664C87.9152 129.442 87.83 129.556 87.7107 129.677C87.5914 129.799 87.4326 129.902 87.2345 129.987C87.0363 130.072 86.7945 130.115 86.509 130.115ZM86.624 129.438C86.9223 129.438 87.1737 129.379 87.3783 129.262C87.585 129.145 87.7405 128.993 87.8449 128.808C87.9514 128.623 88.0047 128.428 88.0047 128.223V127.533C87.9727 127.571 87.9024 127.606 87.7938 127.638C87.6872 127.668 87.5637 127.695 87.423 127.718C87.2845 127.739 87.1492 127.759 87.0171 127.776C86.8872 127.79 86.7817 127.803 86.7007 127.814C86.5047 127.839 86.3215 127.881 86.151 127.939C85.9827 127.994 85.8463 128.078 85.7419 128.191C85.6396 128.302 85.5885 128.453 85.5885 128.645C85.5885 128.907 85.6855 129.105 85.8794 129.239C86.0754 129.371 86.3236 129.438 86.624 129.438ZM89.701 130V129.297H89.88C90.027 129.297 90.1495 129.268 90.2475 129.211C90.3455 129.151 90.4244 129.048 90.484 128.901C90.5458 128.751 90.5927 128.545 90.6246 128.281C90.6587 128.014 90.6832 127.675 90.6982 127.264L90.7876 125.091H94.0604V130H93.3061V125.794H91.5036L91.4268 127.545C91.4098 127.948 91.3736 128.303 91.3182 128.61C91.2649 128.914 91.1829 129.17 91.0721 129.377C90.9634 129.583 90.8185 129.739 90.6374 129.843C90.4563 129.948 90.2294 130 89.9567 130H89.701ZM96.0962 126.868H97.5025C98.0778 126.868 98.5178 127.014 98.8224 127.306C99.1271 127.598 99.2795 127.967 99.2795 128.415C99.2795 128.709 99.2113 128.976 99.0749 129.217C98.9386 129.456 98.7383 129.646 98.4741 129.789C98.2099 129.93 97.886 130 97.5025 130H95.4442V125.091H96.1985V129.297H97.5025C97.8008 129.297 98.0458 129.218 98.2376 129.06C98.4293 128.903 98.5252 128.7 98.5252 128.453C98.5252 128.193 98.4293 127.981 98.2376 127.817C98.0458 127.653 97.8008 127.571 97.5025 127.571H96.0962V126.868ZM103.713 127.2V127.903H101.003V127.2H103.713ZM101.182 125.091V130H100.428V125.091H101.182ZM104.288 125.091V130H103.534V125.091H104.288ZM106.318 126.868H107.724C108.299 126.868 108.739 127.014 109.044 127.306C109.349 127.598 109.501 127.967 109.501 128.415C109.501 128.709 109.433 128.976 109.297 129.217C109.16 129.456 108.96 129.646 108.696 129.789C108.432 129.93 108.108 130 107.724 130H105.666V125.091H106.42V129.297H107.724C108.022 129.297 108.267 129.218 108.459 129.06C108.651 128.903 108.747 128.7 108.747 128.453C108.747 128.193 108.651 127.981 108.459 127.817C108.267 127.653 108.022 127.571 107.724 127.571H106.318V126.868ZM110.281 130V125.091H111.035V130H110.281ZM114.474 130.102C114.001 130.102 113.593 129.998 113.25 129.789C112.909 129.578 112.646 129.284 112.461 128.907C112.277 128.528 112.186 128.087 112.186 127.584C112.186 127.081 112.277 126.638 112.461 126.254C112.646 125.869 112.904 125.568 113.234 125.353C113.566 125.136 113.954 125.027 114.397 125.027C114.653 125.027 114.906 125.07 115.155 125.155C115.404 125.24 115.631 125.379 115.836 125.57C116.04 125.76 116.203 126.011 116.325 126.325C116.446 126.638 116.507 127.023 116.507 127.482V127.801H112.723V127.149H115.74C115.74 126.872 115.684 126.625 115.574 126.408C115.465 126.19 115.309 126.019 115.107 125.893C114.907 125.767 114.67 125.705 114.397 125.705C114.097 125.705 113.837 125.779 113.618 125.928C113.4 126.075 113.233 126.267 113.116 126.504C112.999 126.74 112.94 126.994 112.94 127.264V127.699C112.94 128.07 113.004 128.384 113.132 128.642C113.262 128.897 113.442 129.092 113.672 129.227C113.902 129.359 114.169 129.425 114.474 129.425C114.672 129.425 114.851 129.397 115.011 129.342C115.173 129.284 115.313 129.199 115.43 129.086C115.547 128.971 115.638 128.828 115.701 128.658L116.43 128.862C116.353 129.109 116.225 129.327 116.043 129.514C115.862 129.7 115.639 129.844 115.372 129.949C115.106 130.051 114.807 130.102 114.474 130.102ZM120.671 131.841C120.543 131.841 120.429 131.83 120.329 131.809C120.229 131.79 120.16 131.771 120.122 131.751L120.313 131.087C120.497 131.134 120.658 131.151 120.799 131.138C120.94 131.125 121.064 131.062 121.173 130.949C121.284 130.838 121.385 130.658 121.477 130.409L121.617 130.026L119.802 125.091H120.62L121.975 129.003H122.026L123.381 125.091H124.2L122.116 130.716C122.022 130.969 121.906 131.179 121.767 131.346C121.629 131.514 121.468 131.638 121.285 131.719C121.104 131.8 120.899 131.841 120.671 131.841ZM127.014 130.102C126.554 130.102 126.157 129.994 125.825 129.776C125.492 129.559 125.237 129.26 125.058 128.878C124.879 128.497 124.789 128.061 124.789 127.571C124.789 127.072 124.881 126.632 125.064 126.251C125.25 125.868 125.507 125.568 125.838 125.353C126.17 125.136 126.558 125.027 127.001 125.027C127.346 125.027 127.657 125.091 127.934 125.219C128.211 125.347 128.438 125.526 128.615 125.756C128.792 125.986 128.902 126.254 128.944 126.561H128.19C128.132 126.337 128.005 126.139 127.806 125.967C127.61 125.792 127.346 125.705 127.014 125.705C126.72 125.705 126.462 125.781 126.24 125.935C126.021 126.086 125.849 126.3 125.726 126.577C125.604 126.852 125.544 127.175 125.544 127.545C125.544 127.925 125.603 128.255 125.723 128.536C125.844 128.817 126.014 129.036 126.234 129.191C126.456 129.347 126.715 129.425 127.014 129.425C127.21 129.425 127.388 129.391 127.547 129.322C127.707 129.254 127.843 129.156 127.953 129.028C128.064 128.901 128.143 128.747 128.19 128.568H128.944C128.902 128.858 128.796 129.119 128.628 129.351C128.462 129.581 128.241 129.765 127.966 129.901C127.693 130.035 127.376 130.102 127.014 130.102ZM129.612 130V129.297H129.791C129.938 129.297 130.061 129.268 130.159 129.211C130.257 129.151 130.335 129.048 130.395 128.901C130.457 128.751 130.504 128.545 130.536 128.281C130.57 128.014 130.594 127.675 130.609 127.264L130.699 125.091H133.972V130H133.217V125.794H131.415L131.338 127.545C131.321 127.948 131.285 128.303 131.229 128.61C131.176 128.914 131.094 129.17 130.983 129.377C130.875 129.583 130.73 129.739 130.549 129.843C130.367 129.948 130.141 130 129.868 130H129.612ZM135.665 131.841C135.538 131.841 135.424 131.83 135.323 131.809C135.223 131.79 135.154 131.771 135.116 131.751L135.307 131.087C135.491 131.134 135.653 131.151 135.793 131.138C135.934 131.125 136.059 131.062 136.167 130.949C136.278 130.838 136.379 130.658 136.471 130.409L136.611 130.026L134.796 125.091H135.614L136.969 129.003H137.021L138.376 125.091H139.194L137.11 130.716C137.016 130.969 136.9 131.179 136.762 131.346C136.623 131.514 136.462 131.638 136.279 131.719C136.098 131.8 135.893 131.841 135.665 131.841ZM143.219 125.091V125.794H140.944V130H140.189V125.091H143.219ZM145.074 128.888L147.44 125.091H148.309V130H147.555V126.203L145.202 130H144.32V125.091H145.074V128.888Z" fill="#ED5338"/>
</svg>
