<svg width="21" height="17" viewBox="0 0 21 17" fill="none" xmlns="http://www.w3.org/2000/svg">
<path d="M21.0002 4.87352V13.1154C21.0003 13.9557 20.6729 14.7642 20.0853 15.375C19.4977 15.9859 18.6944 16.3527 17.8402 16.4002L17.6505 16.4053H3.73641C2.88081 16.4054 2.05762 16.0839 1.43571 15.5067C0.813796 14.9296 0.440312 14.1407 0.391872 13.3017L0.386719 13.1154V4.87352L10.3348 9.99156C10.4455 10.0485 10.5685 10.0782 10.6935 10.0782C10.8184 10.0782 10.9415 10.0485 11.0521 9.99156L21.0002 4.87352ZM3.73641 0.208984H17.6505C18.4808 0.208886 19.2816 0.511649 19.8974 1.05855C20.5133 1.60545 20.9004 2.35751 20.9837 3.16886L10.6935 8.46303L0.40321 3.16886C0.483111 2.38973 0.843359 1.66414 1.4192 1.12252C1.99504 0.580901 2.7487 0.258775 3.54471 0.214046L3.73641 0.208984H17.6505H3.73641Z" fill="white"/>
</svg>
