<svg width="16" height="16" viewBox="0 0 16 16" fill="none" xmlns="http://www.w3.org/2000/svg">
<path fill-rule="evenodd" clip-rule="evenodd" d="M15.0963 4.593C13.8824 1.81853 11.0382 0.0081318 7.88075 0.000104389C4.47776 -0.0169528 1.45189 2.05782 0.391111 5.13561C-0.669672 8.21339 0.476952 11.5911 3.22925 13.4961C5.98154 15.4011 9.71076 15.3983 12.4598 13.4891L14.9111 15.8223C15.1603 16.0592 15.5641 16.0592 15.8133 15.8223C16.0622 15.5851 16.0622 15.2008 15.8133 14.9635L13.4387 12.7032C15.6568 10.5643 16.3102 7.36746 15.0963 4.593ZM13.9582 9.85875C12.939 12.1966 10.5399 13.7192 7.88075 13.7159V13.6835C4.2717 13.6791 1.34189 10.9049 1.31852 7.46967C1.31508 4.93855 2.91472 2.655 5.37081 1.68486C7.8269 0.714734 10.6552 1.24931 12.5355 3.03909C14.4158 4.82886 14.9774 7.52093 13.9582 9.85875Z" fill="#C9C9C9"/>
</svg>
