<svg width="20" height="21" viewBox="0 0 20 21" fill="none" xmlns="http://www.w3.org/2000/svg">
<path fill-rule="evenodd" clip-rule="evenodd" d="M19.8773 10.6747C19.8773 16.1634 15.4273 20.6134 9.93865 20.6134C4.45003 20.6134 0 16.1634 0 10.6747C0 5.18611 4.45003 0.736084 9.93865 0.736084C15.4273 0.736084 19.8773 5.18611 19.8773 10.6747ZM10.2948 8.07329C9.32825 8.47498 7.39601 9.30734 4.4989 10.5696C4.02847 10.7567 3.78166 10.9398 3.75929 11.1187C3.7212 11.4218 4.10052 11.5411 4.61567 11.7026C4.68607 11.7249 4.75896 11.7473 4.8335 11.7721C5.3412 11.9369 6.02365 12.1299 6.37813 12.1374C6.70031 12.144 7.05975 12.0115 7.45647 11.7398C10.1631 9.91194 11.5603 8.98848 11.6481 8.9686C11.7102 8.95452 11.7963 8.9363 11.8543 8.98848C11.9123 9.03983 11.9065 9.13756 11.9007 9.16406C11.8626 9.32391 10.3768 10.7062 9.60653 11.4218C9.36635 11.6446 9.19656 11.8028 9.16178 11.8392C9.08393 11.9195 9.00442 11.9966 8.92822 12.0703C8.45613 12.5242 8.10331 12.8654 8.9481 13.4219C9.35393 13.6895 9.67859 13.9106 10.0024 14.1309C10.3561 14.3719 10.7089 14.6121 11.1661 14.9119C11.282 14.9881 11.393 15.0668 11.5015 15.1438C11.9131 15.4378 12.2833 15.7012 12.7405 15.6598C13.0056 15.6349 13.2805 15.3857 13.4197 14.6411C13.7485 12.8803 14.3961 9.06716 14.546 7.49519C14.5552 7.36468 14.5496 7.23355 14.5295 7.10427C14.5174 6.99986 14.4666 6.90379 14.387 6.8351C14.2686 6.7382 14.0847 6.71749 14.0019 6.71915C13.6284 6.72578 13.0552 6.92538 10.2948 8.07329Z" fill="white"/>
</svg>
