<svg width="21" height="21" viewBox="0 0 21 21" fill="none" xmlns="http://www.w3.org/2000/svg">
<path d="M0.329332 20.6135L1.7228 15.4931C0.804615 13.9191 0.322216 12.129 0.325209 10.3067C0.325209 4.61433 4.93954 0 10.632 0C16.3244 0 20.9387 4.61433 20.9387 10.3067C20.9387 15.9992 16.3244 20.6135 10.632 20.6135C8.81052 20.6164 7.02114 20.1344 5.44766 19.2169L0.329332 20.6135ZM6.91225 5.47082C6.77915 5.47908 6.64909 5.51414 6.52987 5.57389C6.41806 5.6372 6.316 5.71635 6.22685 5.80888C6.10317 5.92535 6.03308 6.02635 5.95784 6.12427C5.57692 6.62002 5.37202 7.22855 5.37551 7.85374C5.37757 8.35877 5.5095 8.8504 5.71563 9.31008C6.13718 10.2397 6.83082 11.224 7.74709 12.1362C7.96766 12.3557 8.18307 12.5763 8.41497 12.7814C9.55221 13.7827 10.9074 14.5047 12.3728 14.8901L12.9592 14.9798C13.1499 14.9901 13.3406 14.9757 13.5323 14.9664C13.8324 14.9509 14.1255 14.8696 14.3908 14.7283C14.5258 14.6588 14.6575 14.5831 14.7856 14.5016C14.7856 14.5016 14.8299 14.4727 14.9144 14.4088C15.0535 14.3058 15.1391 14.2326 15.2545 14.112C15.3401 14.0234 15.4143 13.9193 15.471 13.8007C15.5514 13.6327 15.6317 13.3122 15.6647 13.0452C15.6895 12.8412 15.6823 12.7299 15.6792 12.6608C15.675 12.5505 15.5833 12.4361 15.4833 12.3877L14.8835 12.1187C14.8835 12.1187 13.9868 11.728 13.4395 11.4786C13.3818 11.4535 13.32 11.4391 13.2571 11.4364C13.1866 11.4291 13.1153 11.4371 13.0481 11.4596C12.9809 11.4822 12.9193 11.5189 12.8675 11.5673V11.5652C12.8623 11.5652 12.7933 11.6239 12.0481 12.5268C12.0053 12.5843 11.9464 12.6277 11.8789 12.6516C11.8113 12.6754 11.7382 12.6787 11.6688 12.6608C11.6017 12.6428 11.5359 12.6201 11.4719 12.5928C11.3441 12.5392 11.2998 12.5186 11.2122 12.4804L11.2071 12.4784C10.6174 12.2209 10.0715 11.8732 9.58891 11.4477C9.45904 11.3343 9.33845 11.2106 9.21477 11.0911C8.80928 10.7028 8.4559 10.2635 8.16349 9.78419L8.10268 9.68627C8.059 9.62048 8.02368 9.54951 7.99755 9.47499C7.95838 9.32348 8.06042 9.20186 8.06042 9.20186C8.06042 9.20186 8.31087 8.9277 8.42734 8.77928C8.52431 8.65593 8.61479 8.52761 8.69841 8.39484C8.82002 8.19901 8.85816 7.99803 8.79426 7.8424C8.50567 7.13742 8.20677 6.43553 7.89963 5.73879C7.83882 5.60068 7.65846 5.50174 7.49458 5.48216C7.43892 5.47597 7.38327 5.46979 7.32761 5.46566C7.1892 5.45879 7.0505 5.46017 6.91225 5.46979V5.47082Z" fill="white"/>
</svg>
