<svg width="20" height="17" viewBox="0 0 20 17" fill="none" xmlns="http://www.w3.org/2000/svg">
<path d="M9.83999 10.7295C13.5798 10.7295 16.0943 7.65554 16.0943 6.70363C16.0943 5.75171 13.5707 2.68237 9.83999 2.68237C6.1548 2.68237 3.57654 5.75171 3.57654 6.70363C3.57654 7.65554 6.14569 10.7295 9.83999 10.7295ZM9.83999 9.8194C6.93375 9.8194 4.63335 7.35371 4.63335 6.70363C4.63335 6.16034 6.93375 3.5925 9.83999 3.5925C12.7326 3.5925 15.0375 6.16034 15.0375 6.70363C15.0375 7.35371 12.7326 9.8194 9.83999 9.8194ZM9.83999 9.19718C11.1974 9.19718 12.2862 8.05952 12.2862 6.70363C12.2862 5.31523 11.1974 4.21472 9.83999 4.21472C8.47342 4.21472 7.38016 5.31523 7.38472 6.70363C7.39383 8.05952 8.47342 9.19718 9.83999 9.19718ZM9.83543 7.50695C9.39813 7.50695 9.04282 7.14476 9.04282 6.70363C9.04282 6.2625 9.39813 5.9003 9.83543 5.9003C10.2727 5.9003 10.628 6.2625 10.628 6.70363C10.628 7.14476 10.2727 7.50695 9.83543 7.50695Z" fill="#ED5338"/>
<path d="M2.17682 13.4224H17.8232C19.2534 13.4224 20 12.6994 20 11.2456V2.17682C20 0.722986 19.2534 0 17.8232 0H2.17682C0.746562 0 0 0.722986 0 2.17682V11.2456C0 12.6994 0.746562 13.4224 2.17682 13.4224ZM2.27898 11.8978C1.76031 11.8978 1.52456 11.6857 1.52456 11.1513V2.27112C1.52456 1.73674 1.76031 1.52456 2.27898 1.52456H17.721C18.2397 1.52456 18.4754 1.73674 18.4754 2.27112V11.1513C18.4754 11.6857 18.2397 11.8978 17.721 11.8978H2.27898ZM5.98035 16.1729H14.0196C14.4126 16.1729 14.7348 15.8507 14.7348 15.4578C14.7348 15.0648 14.4126 14.7348 14.0196 14.7348H5.98035C5.58743 14.7348 5.26523 15.0648 5.26523 15.4578C5.26523 15.8507 5.58743 16.1729 5.98035 16.1729Z" fill="#ED5338"/>
</svg>
